<svg width="1439" height="144" viewBox="0 0 1439 144" fill="none" xmlns="http://www.w3.org/2000/svg">
<path d="M0.00170898 107.039L1439 103" stroke="#A97C1C"/>
<path d="M0.00170898 49.0391L1439 44.9998" stroke="#A97C1C"/>
<path d="M0.00170898 99.0391L1439 94.9998" stroke="#A97C1C"/>
<path d="M0.00170898 41.0391L1439 36.9998" stroke="#A97C1C"/>
<path d="M0.00170898 74.0391L1439 69.9998" stroke="#A97C1C"/>
<rect x="0.706852" y="-0.00369996" width="47.294" height="47.2936" transform="matrix(0.703149 -0.711042 0.710554 0.703642 1218.37 72.066)" stroke="#A97C1C"/>
<rect x="0.706852" y="-0.00369996" width="47.294" height="47.2936" transform="matrix(0.703149 -0.711042 0.710554 0.703642 59.1732 76.066)" stroke="#A97C1C"/>
<rect x="0.706852" y="-0.00369996" width="47.294" height="47.2936" transform="matrix(0.703149 -0.711042 0.710554 0.703642 1328.97 72.066)" stroke="#A97C1C"/>
<rect x="0.706852" y="-0.00369996" width="47.294" height="47.2936" transform="matrix(0.703149 -0.711042 0.710554 0.703642 169.776 76.066)" stroke="#A97C1C"/>
<rect x="0.706852" y="-0.00369996" width="77.0874" height="77.0868" transform="matrix(0.703149 -0.711042 0.710554 0.703642 1252.72 71.4488)" stroke="#A97C1C"/>
<rect x="0.706852" y="-0.00369996" width="77.0874" height="77.0868" transform="matrix(0.703149 -0.711042 0.710554 0.703642 93.5269 75.4488)" stroke="#A97C1C"/>
<rect x="-5.96046e-08" y="0.707352" width="100.788" height="100.788" transform="matrix(0.706861 0.707352 -0.706861 0.707352 754.555 0.207005)" stroke="#A97C1C"/>
<rect x="-5.96046e-08" y="0.707352" width="100.788" height="100.788" transform="matrix(0.706861 0.707352 -0.706861 0.707352 683.452 0.207005)" stroke="#A97C1C"/>
<path d="M772.542 71.5C772.542 100.771 748.829 124.5 719.579 124.5C690.329 124.5 666.616 100.771 666.616 71.5C666.616 42.2286 690.329 18.5 719.579 18.5C748.829 18.5 772.542 42.2286 772.542 71.5Z" stroke="#A97C1C"/>
</svg>
