<svg width="475" height="76" viewBox="0 0 475 76" fill="none" xmlns="http://www.w3.org/2000/svg">
<g clip-path="url(#clip0_235_38)">
<rect width="58" height="71" fill="#F2ECDE"/>
<path d="M1.56952 69.421H56.4304V1.57889H1.56952V69.421ZM58 71H0V0H58V71Z" fill="#181818"/>
<path d="M18.1945 56.188C18.1945 56.188 10.7013 56.3102 5.24316 51.3123C-0.21502 46.3144 0.784689 37.5149 0.784689 37.5149C0.784689 37.5149 3.14387 35.9664 9.16178 37.5149C15.1798 39.0634 17.6612 43.43 17.6612 43.43C17.6612 43.43 19.3274 48.178 21.8918 51.0524C21.8918 51.0524 23.5069 53.3533 20.9878 53.9164C18.4686 54.4801 17.489 52.5086 12.3107 48.4261C7.13253 44.3429 8.11217 38.5711 1.74431 38.1487C1.74431 38.1487 5.1267 38.2895 6.96932 42.5835C8.81194 46.8775 10.4913 48.7076 13.0805 50.2562C15.6696 51.8047 19.4599 53.814 18.1945 56.188Z" fill="#181818"/>
<path d="M50.7976 43.4281C51.9171 47.0883 50.9375 47.6515 49.3279 52.0862C47.7189 56.521 44.9909 58.6345 44.9909 58.6345C44.9909 58.6345 47.8588 53.0016 48.8384 49.7631C49.818 46.5252 46.4588 43.146 48.4944 38.9933C50.53 34.8399 52.7568 33.5727 52.7568 33.5727C48.6281 38.2888 49.6781 39.7673 50.7976 43.4281ZM52.1274 32.7985C48.9081 33.432 43.7302 35.4734 43.1779 42.2319C42.6261 48.9904 39.8113 51.6217 39.8113 51.6217C39.3218 55.7328 43.8252 57.904 43.8252 57.904C46.4397 60.7648 48.5302 59.238 48.5302 59.238C52.8413 58.6463 57.2152 53.6348 57.2152 45.9621C57.2152 38.2895 55.3461 32.165 52.1274 32.7985Z" fill="#181818"/>
<path d="M28.9593 63.4204C23.5654 63.8142 21.0009 67.986 20.0092 70.2105H21.2354C22.2732 68.0592 24.5549 64.8728 29.0406 64.5454C33.2259 64.2464 36.37 67.787 38.016 70.2105H39.3741C37.762 67.6195 34.1519 63.0365 28.9593 63.4204Z" fill="#181818"/>
<path d="M42.6495 60.714C35.1463 55.9096 28.2283 56.1043 23.7198 57.1331C19.7246 58.0442 16.9295 59.7105 15.93 60.371C15.3058 59.7347 14.6135 59.1369 13.8599 58.5769C15.4222 57.8035 19.1941 56.1241 24.0058 55.2683C29.6121 54.2723 37.7596 54.245 45.2764 59.5146C44.2623 59.8792 43.3905 60.2929 42.6495 60.714ZM39.5338 63.1481C38.0832 61.8693 36.4779 60.8572 34.7536 60.1552C30.8346 58.5595 26.6026 58.6575 22.5146 60.4386C20.693 61.2324 19.229 62.1415 18.0515 63.0916C17.6565 62.438 17.206 61.8122 16.7009 61.2156C17.7535 60.5446 20.3902 59.0413 24.0141 58.2221C30.064 56.854 35.9736 57.917 41.5898 61.3762C40.5831 62.0683 39.9167 62.7208 39.5338 63.1481ZM46.6067 59.0892C38.5906 53.1002 29.8001 53.0934 23.8106 54.1582C18.1158 55.1703 13.9183 57.2565 12.8082 57.8476C9.66829 55.8147 5.59819 54.3827 0.784729 53.6466V54.7858C8.71144 56.028 14.48 59.2039 17.1899 63.8396C16.5558 64.4325 16.0226 65.0328 15.5748 65.6238C12.667 60.0597 4.98398 59.375 0.784729 59.4439V60.5893C4.88151 60.5403 12.4776 61.2238 14.8435 66.6967C14.5571 67.1655 14.3212 67.6207 14.127 68.0524C9.20475 64.1249 3.42723 65.256 0.784729 66.0963V67.2815C3.0523 66.4982 8.88726 65.0923 13.6967 69.1544C13.5678 69.5438 13.4745 69.898 13.4058 70.2105H14.5689C15.1067 68.1181 16.9111 64.1081 22.9599 61.4736C26.7666 59.8147 30.6996 59.7204 34.3325 61.2001C38.1326 62.748 41.3278 65.9183 43.4651 70.2105H44.7086C44.6562 70.1001 44.6051 69.9878 44.5514 69.8781C46.0939 68.946 51.7384 65.9047 57.2152 67.5928V66.4114C51.4517 64.7884 45.7628 67.8179 44.0317 68.8721C43.763 68.3816 43.4824 67.9047 43.1871 67.4451C44.1674 66.363 48.2503 62.6016 57.2152 63.1555V62.0237C48.2226 61.4686 43.9041 65.0327 42.533 66.4864C41.8635 65.5549 41.1361 64.6978 40.3568 63.9232C40.9018 63.3223 42.2106 62.0863 44.5083 61.0599C46.9989 59.9473 51.1157 58.9005 57.2152 59.6131V58.4751C52.7568 57.9616 49.2724 58.3425 46.6067 59.0892Z" fill="#181818"/>
<path d="M42.2568 35.2186L43.2648 35.7127C46.5254 28.9768 53.2481 26.5712 57.2152 25.7217V24.5572C56.0723 24.7884 54.6913 25.1457 53.2099 25.6986C48.1443 27.5883 44.3565 30.8802 42.2568 35.2186Z" fill="#181818"/>
<path d="M40.7427 29.4077L41.7883 29.8147C44.7406 22.1451 52.4621 17.8603 57.2152 15.8731V14.6411C55.8744 15.1811 54.2678 15.9109 52.5669 16.8635C48.4987 19.1418 43.1445 23.1677 40.7427 29.4077Z" fill="#181818"/>
<path d="M43.2636 19.8322L43.2179 19.7735C43.0404 19.5417 42.7069 19.4984 42.4794 19.6809C41.702 20.3049 40.9795 20.9441 40.3229 21.5891C40.1145 21.794 40.1176 22.1329 40.326 22.3383L40.3747 22.3866C40.5787 22.5877 40.9067 22.592 41.1108 22.3914C41.7377 21.7761 42.4282 21.1653 43.1717 20.5681C43.3967 20.3877 43.4386 20.0611 43.2636 19.8322Z" fill="#181818"/>
<path d="M53.422 13.9699L53.3924 13.9018C53.2753 13.6342 52.9627 13.512 52.6976 13.6315C50.519 14.6128 48.4969 15.6671 46.6733 16.772C46.4237 16.923 46.3478 17.2508 46.5008 17.4997L46.5396 17.5629C46.6912 17.809 47.0094 17.8851 47.2553 17.736C49.0388 16.6556 51.019 15.6238 53.1538 14.6619C53.4164 14.5435 53.5373 14.2352 53.422 13.9699Z" fill="#181818"/>
<path d="M37.2565 22.1661L38.3095 22.5542C41.0997 14.8953 51.4684 10.9504 57.2152 9.3123V8.13498C55.4015 8.63761 53.0971 9.37243 50.7033 10.3864C43.6211 13.3862 38.9716 17.4596 37.2565 22.1661Z" fill="#181818"/>
<path d="M53.4294 2.37186L53.3985 2.30123C53.2771 2.02398 52.9498 1.9067 52.6816 2.04442C51.3222 2.74212 47.402 4.99439 43.1735 9.64369C42.9775 9.85946 42.996 10.1961 43.213 10.3908L43.2684 10.4406C43.483 10.6333 43.811 10.6137 44.0052 10.4002C48.0795 5.9245 51.9221 3.71151 53.192 3.05148C53.438 2.92383 53.5409 2.6264 53.4294 2.37186Z" fill="#181818"/>
<path d="M34.3134 18.7308L35.4126 18.9528C37.1912 10.048 42.0183 4.77428 45.7536 1.91833C46.2936 1.50555 46.8269 1.13082 47.3465 0.789429H45.3836C45.2943 0.855718 45.2055 0.921586 45.1155 0.989856C41.2101 3.96461 36.166 9.45721 34.3134 18.7308Z" fill="#181818"/>
<path d="M37.283 3.57059C37.4574 3.36692 37.455 3.06485 37.2737 2.86703L37.2226 2.8109C37.0105 2.57853 36.6468 2.58443 36.4403 2.82177C35.6962 3.67915 34.1198 5.83441 33.3492 9.4233C33.2863 9.71441 33.4744 10.0016 33.7653 10.0561L33.8381 10.0696C34.1149 10.1214 34.3842 9.94333 34.4441 9.66654C35.1604 6.33661 36.6338 4.32759 37.283 3.57059Z" fill="#181818"/>
<path d="M30.5165 15.7008L31.6311 15.8255C32.1157 11.449 30.7446 5.114 29.5856 0.78949H28.4146C29.5653 5.04439 30.9881 11.4459 30.5165 15.7008Z" fill="#181818"/>
<path d="M28.164 10.3921C27.8785 8.06283 25.8192 4.70863 25.0352 3.50127C24.8741 3.25326 24.5426 3.18921 24.3003 3.35739L24.2404 3.39899C24.006 3.56174 23.9442 3.88202 24.1003 4.12181C25.0714 5.6146 26.8221 8.63554 27.0511 10.5115C27.0828 10.7708 27.2961 10.9672 27.5557 10.9743L27.6284 10.9763C27.946 10.9849 28.2029 10.7093 28.164 10.3921Z" fill="#181818"/>
<path d="M24.6318 14.9997L25.741 14.8375C24.9031 9.02995 19.7253 3.80116 16.1062 0.78949H14.2941C17.722 3.48796 23.7681 9.01558 24.6318 14.9997Z" fill="#181818"/>
<path d="M7.5555 3.85198L7.53853 3.92724C7.47813 4.19577 7.63262 4.46653 7.89436 4.54673C9.26519 4.9665 13.3501 6.48618 15.9712 10.2985C16.1298 10.5292 16.4432 10.5897 16.6786 10.4392L16.7411 10.3993C16.9938 10.2378 17.0587 9.89714 16.8884 9.64943C14.0503 5.52088 9.72701 3.91708 8.21371 3.46267C7.92381 3.3756 7.62223 3.55517 7.5555 3.85198Z" fill="#181818"/>
<path d="M19.4404 19.513L20.4787 19.0883C17.3659 11.3861 6.85353 6.00193 0.784729 3.45096V4.69836C6.75718 7.27681 16.5853 12.4487 19.4404 19.513Z" fill="#181818"/>
<path d="M13.6195 19.2741L13.5703 19.3297C13.3788 19.5459 13.3982 19.8779 13.6117 20.072C14.8467 21.1949 15.5816 21.9464 15.9595 22.3528C16.1476 22.555 16.4582 22.5746 16.6715 22.3994L16.7293 22.352C16.9638 22.1594 16.989 21.8085 16.7824 21.5859C16.3822 21.1549 15.6268 20.3835 14.3627 19.2345C14.1472 19.0385 13.8128 19.0559 13.6195 19.2741Z" fill="#181818"/>
<path d="M3.54409 12.5313C4.31914 12.884 6.22476 13.9057 9.52308 16.5748C9.74686 16.7559 10.0749 16.7213 10.2566 16.4976L10.3034 16.4399C10.4877 16.2129 10.4514 15.8783 10.2245 15.6946C6.87178 12.9816 4.8928 11.9044 4.00067 11.5007C3.70668 11.3676 3.36429 11.5273 3.27854 11.8399L3.25856 11.9128C3.19032 12.1617 3.31034 12.4249 3.54409 12.5313Z" fill="#181818"/>
<path d="M15.7371 27.0224L16.6291 26.339C12.3598 20.7004 5.49246 18.4526 0.784729 17.5565V18.7343C5.31572 19.6398 11.7935 21.8137 15.7371 27.0224Z" fill="#181818"/>
<path d="M10.5315 27.0636C11.5909 27.5409 12.5577 28.0638 13.4163 28.6239C13.6522 28.7778 13.967 28.7119 14.127 28.4792L14.1688 28.4183C14.3379 28.1725 14.2695 27.8364 14.0201 27.6739C13.1136 27.0829 12.0966 26.5327 10.9854 26.0325C10.7195 25.9128 10.4077 26.04 10.2939 26.3096L10.2666 26.3746C10.1552 26.6385 10.2714 26.9463 10.5315 27.0636Z" fill="#181818"/>
<path d="M2.04025 24.5508C3.45855 24.8064 4.82854 25.1199 6.12555 25.4858C6.40238 25.5639 6.68963 25.4065 6.77107 25.1291L6.79197 25.058C6.87433 24.7774 6.71472 24.4808 6.43468 24.4017C5.09966 24.0249 3.69088 23.7023 2.23325 23.4397C1.94713 23.3882 1.67391 23.5838 1.62578 23.8722L1.61359 23.9455C1.56591 24.2309 1.75698 24.4998 2.04025 24.5508Z" fill="#181818"/>
<path d="M15.1465 32.7586L15.8143 31.8529C10.8787 28.1695 4.222 27.7164 0.784729 27.7624V28.9019C4.08058 28.87 10.5209 29.3066 15.1465 32.7586Z" fill="#181818"/>
<path d="M15.5084 38.0768L16.5253 37.6024C14.5689 33.3587 5.15791 32.9161 0.784729 32.9461V34.0701C5.69342 34.0384 13.951 34.6983 15.5084 38.0768Z" fill="#181818"/>
<path d="M35.9675 45.1876C34.6426 48.8484 32.4344 52.6494 30.1528 53.4946C29.6923 53.6646 32.1403 51.3123 32.0669 45.4697C31.993 39.6266 31.8333 39.0635 29.8525 36.2479C27.8713 33.432 27.9451 36.7409 26.473 30.4051C25.0012 24.0697 25.8107 20.4093 26.473 18.0863L27.1355 15.7631C27.1355 15.7631 26.3995 21.3243 27.4298 26.9559C28.4602 32.5873 30.6681 32.7985 32.8024 36.3887C34.9367 39.9788 37.2923 41.5273 35.9675 45.1876ZM19.651 25.4071C15.6255 34.4175 23.0877 48.7777 23.0877 48.7777C13.5936 33.5728 19.651 25.4071 19.651 25.4071ZM43.5219 34.9102C40.6774 21.3243 33.7592 17.5936 31.919 16.1856C30.0794 14.7776 28.902 14.4257 27.2091 14.9186C27.2091 14.9186 26.1787 14.3554 25.1484 14.9186C24.1181 15.4817 14.962 20.1981 14.9401 32.3058C14.9183 44.4136 23.2404 53.6044 25.2248 54.4999C25.2248 54.4999 30.7292 53.6615 34.6667 54.4999C38.6048 55.3378 46.3657 48.4961 43.5219 34.9102Z" fill="#181818"/>
</g>
<path d="M90.945 62.22C84.0883 62.22 79.01 60.2767 75.71 56.39C74.5367 54.9967 73.5833 53.145 72.85 50.835C72.1167 48.525 71.75 45.72 71.75 42.42C71.75 39.12 72.2817 36.1683 73.345 33.565C74.445 30.925 75.93 28.89 77.8 27.46C81.43 24.7833 85.8117 23.445 90.945 23.445C92.4117 23.445 93.8417 23.5733 95.235 23.83C96.6283 24.05 97.6733 24.2883 98.37 24.545L99.36 24.93L99.195 25.48C96.7017 24.49 93.9517 23.995 90.945 23.995C87.0583 23.995 83.8133 25.26 81.21 27.79C79.23 29.66 77.8367 32.41 77.03 36.04C76.5533 38.0933 76.315 40.605 76.315 43.575C76.315 46.545 76.7367 49.295 77.58 51.825C78.4233 54.3183 79.3767 56.17 80.44 57.38C81.54 58.59 82.86 59.5617 84.4 60.295C85.94 60.9917 87.1683 61.395 88.085 61.505C89.0017 61.615 90.1017 61.67 91.385 61.67C92.705 61.67 94.19 61.5417 95.84 61.285C97.49 61.0283 98.7367 60.79 99.58 60.57L100.845 60.185L101.01 60.735C98.2233 61.725 94.8683 62.22 90.945 62.22ZM128.245 62C126.742 62 125.587 61.67 124.78 61.01C124.01 60.35 123.607 59.69 123.57 59.03L123.515 58.095V40.825C123.515 37.9283 122.745 36.0767 121.205 35.27C120.472 34.9033 119.537 34.72 118.4 34.72C116.127 34.72 114.074 35.655 112.24 37.525C110.444 39.3583 109.545 41.0083 109.545 42.475V62H105.695V20.805H109.545V40.77C110.132 39.1933 111.25 37.7267 112.9 36.37C114.55 34.9767 116.402 34.28 118.455 34.28C122.012 34.28 124.377 34.9033 125.55 36.15C126.76 37.36 127.365 38.9367 127.365 40.88V58.095C127.365 59.1583 127.567 59.9833 127.97 60.57C128.41 61.12 128.832 61.4133 129.235 61.45L129.895 61.56H131.6V62H128.245ZM157.348 62C154.854 62 153.149 61.5233 152.233 60.57C151.389 59.7633 150.968 59.0667 150.968 58.48V57.325C149.171 60.5883 146.293 62.22 142.333 62.22C137.713 62.22 135.091 60.13 134.468 55.95C134.394 55.51 134.358 55.07 134.358 54.63C134.358 54.1533 134.431 53.64 134.578 53.09C134.724 52.54 135.146 51.935 135.843 51.275C137.236 49.955 140.298 49.1483 145.028 48.855C146.201 48.745 147.283 48.69 148.273 48.69C149.263 48.69 150.161 48.7267 150.968 48.8V39.67C150.894 39.6333 150.894 39.4683 150.968 39.175C151.041 38.845 150.968 38.4417 150.748 37.965C150.564 37.4517 150.308 36.9567 149.978 36.48C149.648 36.0033 149.061 35.6 148.218 35.27C147.374 34.9033 146.274 34.72 144.918 34.72C143.561 34.72 141.966 34.9767 140.133 35.49C138.336 35.9667 137.016 36.4433 136.173 36.92L135.953 36.535C139.216 35.0317 142.534 34.28 145.908 34.28C149.684 34.28 152.178 34.9583 153.388 36.315C154.341 37.3783 154.818 38.4967 154.818 39.67V58.095C154.818 59.1583 155.019 59.9833 155.423 60.57C155.863 61.12 156.303 61.4133 156.743 61.45L157.348 61.56H159.053V62H157.348ZM143.213 61.78C145.156 61.78 146.898 61.12 148.438 59.8C150.014 58.4433 150.858 57.1417 150.968 55.895V49.24C149.978 49.1667 148.969 49.13 147.943 49.13C146.953 49.13 145.963 49.185 144.973 49.295C142.186 49.625 140.371 50.2483 139.528 51.165C138.684 52.0817 138.263 53.3467 138.263 54.96C138.263 55.2533 138.281 55.5833 138.318 55.95C138.648 59.8367 140.279 61.78 143.213 61.78ZM172.584 36.865V35.71C170.934 36.37 169.431 37.7083 168.074 39.725C166.717 41.705 166.002 43.575 165.929 45.335V62H162.079V34.5H165.929V43.245C166.516 41.1183 167.634 39.12 169.284 37.25C170.934 35.3433 172.804 34.3533 174.894 34.28H175.114C175.847 34.28 176.452 34.5367 176.929 35.05C177.442 35.5267 177.699 36.1317 177.699 36.865C177.699 37.5983 177.442 38.2033 176.929 38.68C176.452 39.1567 175.847 39.395 175.114 39.395C174.381 39.395 173.776 39.1567 173.299 38.68C172.822 38.2033 172.584 37.5983 172.584 36.865ZM188.83 62C185.603 62 183.568 61.1567 182.725 59.47C182.541 59.1033 182.45 58.7733 182.45 58.48V20.805H186.3V58.095C186.3 59.1583 186.501 59.9833 186.905 60.57C187.345 61.12 187.785 61.4133 188.225 61.45L188.83 61.56H190.535V62H188.83ZM195.682 48.58C195.682 53.1267 196.471 56.4633 198.047 58.59C199.661 60.7167 201.769 61.78 204.372 61.78C208.039 61.78 211.302 61.23 214.162 60.13L214.327 60.515C211.394 61.6517 208.076 62.22 204.372 62.22C200.706 62.22 197.717 61.12 195.407 58.92C193.097 56.72 191.942 53.3283 191.942 48.745C191.942 44.1617 193.152 40.605 195.572 38.075C197.992 35.545 201.072 34.28 204.812 34.28C207.819 34.28 210.349 35.1783 212.402 36.975C214.456 38.7717 215.482 41.43 215.482 44.95C215.482 45.1333 215.482 45.3167 215.482 45.5H195.847C195.737 46.49 195.682 47.5167 195.682 48.58ZM211.742 45.06C211.706 41.54 211.027 38.9367 209.707 37.25C208.387 35.5633 206.682 34.72 204.592 34.72C202.502 34.72 200.632 35.6367 198.982 37.47C197.369 39.3033 196.342 41.8333 195.902 45.06H211.742ZM235.448 36.425C234.862 35.9483 233.908 35.545 232.588 35.215C231.305 34.885 230.333 34.72 229.673 34.72C229.013 34.72 228.628 34.72 228.518 34.72C226.538 34.7567 225.108 35.27 224.228 36.26C223.348 37.2133 222.908 38.295 222.908 39.505C222.908 40.715 223.293 41.7417 224.063 42.585C224.833 43.3917 225.787 44.0333 226.923 44.51C228.097 44.95 229.343 45.4633 230.663 46.05C232.02 46.6367 233.267 47.2417 234.403 47.865C235.577 48.4517 236.548 49.3317 237.318 50.505C238.088 51.6417 238.473 53.0717 238.473 54.795C238.473 56.5183 237.868 57.985 236.658 59.195C235.448 60.405 234.092 61.2117 232.588 61.615C231.122 62.0183 229.527 62.22 227.803 62.22C224.063 62.22 221.258 61.395 219.388 59.745L219.718 59.415C220.452 60.1117 221.533 60.68 222.963 61.12C224.43 61.56 225.842 61.78 227.198 61.78C229.362 61.78 231.14 61.1933 232.533 60.02C233.963 58.81 234.678 57.325 234.678 55.565C234.678 53.7683 234.147 52.3383 233.083 51.275C232.02 50.175 230.718 49.3317 229.178 48.745C227.675 48.1217 226.153 47.5167 224.613 46.93C223.073 46.3067 221.772 45.4633 220.708 44.4C219.645 43.3 219.113 42.035 219.113 40.605C219.113 39.175 219.443 38.02 220.103 37.14C220.763 36.2233 221.643 35.5817 222.743 35.215C224.613 34.5917 226.483 34.28 228.353 34.28C231.507 34.28 233.963 34.8667 235.723 36.04L235.448 36.425ZM242.317 34.94V34.5H243.472V29H247.322V34.5H255.737V34.94H247.322V54.96C247.322 57.3433 247.578 59.0667 248.092 60.13C248.642 61.1933 249.76 61.725 251.447 61.725C253.17 61.725 254.912 61.3767 256.672 60.68L256.837 61.12C255.003 61.8167 252.895 62.165 250.512 62.165C248.165 62.165 246.405 61.6883 245.232 60.735C244.058 59.745 243.472 57.8017 243.472 54.905V34.94H242.317ZM274.611 23.06L278.571 22.95L272.796 30.815H272.081L274.611 23.06ZM271.256 62.22C267.406 62.22 264.271 61.12 261.851 58.92C259.431 56.72 258.221 53.3283 258.221 48.745C258.221 44.1617 259.468 40.605 261.961 38.075C264.491 35.545 267.681 34.28 271.531 34.28C275.418 34.28 278.571 35.38 280.991 37.58C283.411 39.78 284.621 43.1717 284.621 47.755C284.621 52.3383 283.356 55.895 280.826 58.425C278.333 60.955 275.143 62.22 271.256 62.22ZM271.641 34.72C268.855 34.72 266.545 35.9667 264.711 38.46C262.878 40.9167 261.961 44.3633 261.961 48.8C261.961 53.2 262.805 56.4633 264.491 58.59C266.178 60.7167 268.415 61.78 271.201 61.78C273.988 61.78 276.298 60.5517 278.131 58.095C279.965 55.6017 280.881 52.155 280.881 47.755C280.881 43.3183 280.038 40.0367 278.351 37.91C276.665 35.7833 274.428 34.72 271.641 34.72ZM310.749 62C309.245 62 308.09 61.67 307.284 61.01C306.514 60.35 306.11 59.69 306.074 59.03L306.019 58.095V40.825C306.019 37.9283 305.267 36.0767 303.764 35.27C302.994 34.9033 302.04 34.72 300.904 34.72C298.557 34.72 296.449 35.655 294.579 37.525C292.709 39.3583 291.774 41.0083 291.774 42.475V62H287.924V34.5H291.774V40.77C292.397 39.1933 293.552 37.7267 295.239 36.37C296.925 34.9767 298.777 34.28 300.794 34.28C302.81 34.28 304.442 34.4817 305.689 34.885C306.972 35.2517 307.907 35.7833 308.494 36.48C309.41 37.6167 309.869 39.0833 309.869 40.88V58.095C309.869 59.1583 310.07 59.9833 310.474 60.57C310.914 61.12 311.354 61.4133 311.794 61.45L312.399 61.56H314.104V62H310.749ZM353.054 62.22C346.198 62.22 341.119 60.2767 337.819 56.39C336.646 54.9967 335.693 53.145 334.959 50.835C334.226 48.525 333.859 45.72 333.859 42.42C333.859 39.12 334.391 36.1683 335.454 33.565C336.554 30.925 338.039 28.89 339.909 27.46C343.539 24.7833 347.921 23.445 353.054 23.445C354.521 23.445 355.951 23.5733 357.344 23.83C358.738 24.05 359.783 24.2883 360.479 24.545L361.469 24.93L361.304 25.48C358.811 24.49 356.061 23.995 353.054 23.995C349.168 23.995 345.923 25.26 343.319 27.79C341.339 29.66 339.946 32.41 339.139 36.04C338.663 38.0933 338.424 40.605 338.424 43.575C338.424 46.545 338.846 49.295 339.689 51.825C340.533 54.3183 341.486 56.17 342.549 57.38C343.649 58.59 344.969 59.5617 346.509 60.295C348.049 60.9917 349.278 61.395 350.194 61.505C351.111 61.615 352.211 61.67 353.494 61.67C354.814 61.67 356.299 61.5417 357.949 61.285C359.599 61.0283 360.846 60.79 361.689 60.57L362.954 60.185L363.119 60.735C360.333 61.725 356.978 62.22 353.054 62.22ZM379.215 62.22C375.365 62.22 372.23 61.12 369.81 58.92C367.39 56.72 366.18 53.3283 366.18 48.745C366.18 44.1617 367.427 40.605 369.92 38.075C372.45 35.545 375.64 34.28 379.49 34.28C383.377 34.28 386.53 35.38 388.95 37.58C391.37 39.78 392.58 43.1717 392.58 47.755C392.58 52.3383 391.315 55.895 388.785 58.425C386.292 60.955 383.102 62.22 379.215 62.22ZM379.6 34.72C376.814 34.72 374.504 35.9667 372.67 38.46C370.837 40.9167 369.92 44.3633 369.92 48.8C369.92 53.2 370.764 56.4633 372.45 58.59C374.137 60.7167 376.374 61.78 379.16 61.78C381.947 61.78 384.257 60.5517 386.09 58.095C387.924 55.6017 388.84 52.155 388.84 47.755C388.84 43.3183 387.997 40.0367 386.31 37.91C384.624 35.7833 382.387 34.72 379.6 34.72ZM400.613 31.915V34.5H404.958V34.94H400.613V62H396.763V34.94H395.608V34.5H396.763V31.915C396.763 27.9183 397.624 25.0767 399.348 23.39C401.071 21.6667 403.858 20.7867 407.708 20.75V21.19C405.178 21.2267 403.363 22.0883 402.263 23.775C401.163 25.425 400.613 28.1383 400.613 31.915ZM413.557 31.915V34.5H417.902V34.94H413.557V62H409.707V34.94H408.552V34.5H409.707V31.915C409.707 27.9183 410.569 25.0767 412.292 23.39C414.015 21.6667 416.802 20.7867 420.652 20.75V21.19C418.122 21.2267 416.307 22.0883 415.207 23.775C414.107 25.425 413.557 28.1383 413.557 31.915ZM425.511 48.58C425.511 53.1267 426.3 56.4633 427.876 58.59C429.49 60.7167 431.598 61.78 434.201 61.78C437.868 61.78 441.131 61.23 443.991 60.13L444.156 60.515C441.223 61.6517 437.905 62.22 434.201 62.22C430.535 62.22 427.546 61.12 425.236 58.92C422.926 56.72 421.771 53.3283 421.771 48.745C421.771 44.1617 422.981 40.605 425.401 38.075C427.821 35.545 430.901 34.28 434.641 34.28C437.648 34.28 440.178 35.1783 442.231 36.975C444.285 38.7717 445.311 41.43 445.311 44.95C445.311 45.1333 445.311 45.3167 445.311 45.5H425.676C425.566 46.49 425.511 47.5167 425.511 48.58ZM441.571 45.06C441.535 41.54 440.856 38.9367 439.536 37.25C438.216 35.5633 436.511 34.72 434.421 34.72C432.331 34.72 430.461 35.6367 428.811 37.47C427.198 39.3033 426.171 41.8333 425.731 45.06H441.571ZM452.958 48.58C452.958 53.1267 453.746 56.4633 455.323 58.59C456.936 60.7167 459.044 61.78 461.648 61.78C465.314 61.78 468.578 61.23 471.438 60.13L471.603 60.515C468.669 61.6517 465.351 62.22 461.648 62.22C457.981 62.22 454.993 61.12 452.683 58.92C450.373 56.72 449.218 53.3283 449.218 48.745C449.218 44.1617 450.428 40.605 452.848 38.075C455.268 35.545 458.348 34.28 462.088 34.28C465.094 34.28 467.624 35.1783 469.678 36.975C471.731 38.7717 472.758 41.43 472.758 44.95C472.758 45.1333 472.758 45.3167 472.758 45.5H453.123C453.013 46.49 452.958 47.5167 452.958 48.58ZM469.018 45.06C468.981 41.54 468.303 38.9367 466.983 37.25C465.663 35.5633 463.958 34.72 461.868 34.72C459.778 34.72 457.908 35.6367 456.258 37.47C454.644 39.3033 453.618 41.8333 453.178 45.06H469.018Z" fill="#F3EDDF"/>
<defs>
<clipPath id="clip0_235_38">
<rect width="58" height="71" fill="white"/>
</clipPath>
</defs>
</svg>
