<?xml version="1.0" encoding="UTF-8"?>
<svg id="Capa_3" data-name="Capa 3" xmlns="http://www.w3.org/2000/svg" viewBox="0 0 98 97.5">
  <defs>
    <style>
      .cls-1 {
        fill: none;
        stroke: #f3eddf;
        stroke-miterlimit: 10;
        stroke-width: 2px;
      }
    </style>
  </defs>
  <circle class="cls-1" cx="49.25" cy="48.75" r="47.75"/>
  <path class="cls-1" d="M60.27,18.84h-8.4v40.73c0,4.52-3.69,8.2-8.26,8.2s-8.26-3.67-8.26-8.2,3.69-8.2,8.26-8.2c.23,0,.46.01.69.03h.02c.19.01.37.03.55.06.17.02.35.05.5.09.18.03.35.07.5.13.15.04.3.08.44.14v-10.8c-.76-.09-1.53-.15-2.32-.15-10.14,0-18.37,8.46-18.37,18.89s8.23,18.89,18.37,18.89,18.37-8.46,18.37-18.89v-20.57c1.78,1.79,11.54,4.3,11.54,4.3v-12.07c-13.64,0-13.64-12.59-13.64-12.59Z"/>
</svg>