<svg width="313" height="62" viewBox="0 0 313 62" fill="none" xmlns="http://www.w3.org/2000/svg">
<g clip-path="url(#clip0_235_4)">
<path d="M156.827 0.986531L170.059 48.996L156.827 61.0654L156.693 61.0654L143.461 48.996L156.693 0.986531" stroke="#A97C1C" stroke-miterlimit="10"/>
<path d="M156.827 0.986262L178.808 34.2491L182.703 40.1448L169.069 45.4058" stroke="#A97C1C" stroke-miterlimit="10"/>
<path d="M156.827 0.380824L191.524 29.9523L178.808 34.249" stroke="#A97C1C" stroke-miterlimit="10"/>
<path d="M144.451 45.4058L130.817 40.1448L134.711 34.2491L156.693 0.986259" stroke="#A97C1C" stroke-miterlimit="10"/>
<path d="M134.711 34.249L121.995 29.9523L156.693 0.380821" stroke="#A97C1C" stroke-miterlimit="10"/>
<path d="M157.325 0.986531L144.093 48.996L157.325 61.0654L157.458 61.0654L170.69 48.996L157.458 0.986531" stroke="#A97C1C" stroke-miterlimit="10"/>
<path d="M157.325 0.986259L135.343 34.2491L131.449 40.1448L145.083 45.4058" stroke="#A97C1C" stroke-miterlimit="10"/>
<path d="M157.325 0.380821L122.627 29.9523L135.343 34.249" stroke="#A97C1C" stroke-miterlimit="10"/>
<path d="M169.701 45.4058L183.334 40.1448L179.44 34.2491L157.458 0.986262" stroke="#A97C1C" stroke-miterlimit="10"/>
<path d="M179.44 34.249L192.156 29.9523L157.458 0.380824" stroke="#A97C1C" stroke-miterlimit="10"/>
</g>
<path d="M0 1L313 1.00003" stroke="#A97C1C"/>
<defs>
<clipPath id="clip0_235_4">
<rect width="72.1514" height="61.5653" fill="white" transform="translate(193.151 61.5654) rotate(180)"/>
</clipPath>
</defs>
</svg>
