<svg width="313" height="62" viewBox="0 0 313 62" fill="none" xmlns="http://www.w3.org/2000/svg">
<g clip-path="url(#clip0_235_3)">
<path d="M157.476 60.5789L144.244 12.5694L157.476 0.5H157.61L170.842 12.5694L157.61 60.5789" stroke="#A97C1C" stroke-miterlimit="10"/>
<path d="M157.476 60.5792L135.494 27.3164L131.6 21.4207L145.234 16.1597" stroke="#A97C1C" stroke-miterlimit="10"/>
<path d="M157.476 61.1846L122.779 31.6131L135.494 27.3164" stroke="#A97C1C" stroke-miterlimit="10"/>
<path d="M169.852 16.1597L183.486 21.4207L179.592 27.3164L157.61 60.5792" stroke="#A97C1C" stroke-miterlimit="10"/>
<path d="M179.592 27.3164L192.307 31.6131L157.61 61.1846" stroke="#A97C1C" stroke-miterlimit="10"/>
<path d="M156.978 60.5789L170.21 12.5694L156.978 0.5H156.844L143.612 12.5694L156.844 60.5789" stroke="#A97C1C" stroke-miterlimit="10"/>
<path d="M156.978 60.5792L178.96 27.3164L182.854 21.4207L169.22 16.1597" stroke="#A97C1C" stroke-miterlimit="10"/>
<path d="M156.978 61.1846L191.676 31.6131L178.96 27.3164" stroke="#A97C1C" stroke-miterlimit="10"/>
<path d="M144.602 16.1597L130.968 21.4207L134.863 27.3164L156.844 60.5792" stroke="#A97C1C" stroke-miterlimit="10"/>
<path d="M134.863 27.3164L122.147 31.6131L156.844 61.1846" stroke="#A97C1C" stroke-miterlimit="10"/>
</g>
<path d="M0 61L313 61" stroke="#A97C1C"/>
<defs>
<clipPath id="clip0_235_3">
<rect width="72.1514" height="61.5653" fill="white" transform="translate(121.151)"/>
</clipPath>
</defs>
</svg>
