<svg width="81" height="121" viewBox="0 0 81 121" fill="none" xmlns="http://www.w3.org/2000/svg">
<path d="M40.477 0.00051027L80.9541 40.4775L40.477 80.9546L0 40.4775L40.477 0.00051027ZM40.477 79.5404L79.5398 40.4775L40.477 1.41472L1.41421 40.4775L40.477 79.5404Z" fill="#A97C1C"/>
<path d="M40.477 40.0005L80.9541 80.4775L40.477 120.955L0 80.4775L40.477 40.0005ZM40.477 119.54L79.5398 80.4775L40.477 41.4147L1.41421 80.4775L40.477 119.54Z" fill="#A97C1C"/>
<path d="M69 60.001C69 43.9847 56.0163 31.001 40 31.001C23.9837 31.001 11 43.9847 11 60.001C11 76.0172 23.9837 89.001 40 89.001V90.001C23.4315 90.001 10 76.5695 10 60.001C10 43.4324 23.4315 30.001 40 30.001C56.5685 30.001 70 43.4324 70 60.001C70 76.5695 56.5685 90.001 40 90.001V89.001C56.0163 89.001 69 76.0172 69 60.001Z" fill="#A97C1C"/>
</svg>
